<svg id="Layer_1" xmlns="http://www.w3.org/2000/svg" width="597.6" height="153.6" viewBox="0 0 597.6 153.6"><style>.st0{fill:#5d878b}.st1{fill:#fff}.st2{fill:#0dc4a3}.st3{fill:#f4584d}.st4{fill:#ffc31a}</style><path transform="rotate(45.001 76.782 14.141)" class="st0" d="M69.3 6.6H84.3V21.6H69.3z"/><path class="st1" d="M71.5 65.4c1.4 1.4 3.3 2.2 5.3 2.2s3.9-.8 5.3-2.2l46-46c1.4-1.4 2.2-3.3 2.2-5.3s-.8-3.9-2.2-5.3L119.2 0 76.8 42.4 54.6 20.2 40.4 34.4l31.1 31z"/><path class="st0" d="M34.4 28.3l14.1-14.1L34.4 0l-8.8 8.8c-2.9 2.9-2.9 7.7 0 10.6l8.8 8.9z"/><path transform="rotate(-134.999 14.141 76.782)" class="st2" d="M6.6 69.3H21.6V84.3H6.6z"/><path class="st2" d="M20.2 99l14.1 14.1L65.4 82c1.4-1.4 2.2-3.3 2.2-5.3s-.8-3.9-2.2-5.3l-46-46c-1.4-1.4-3.3-2.2-5.3-2.2s-3.9.8-5.3 2.2l-8.8 9 42.4 42.4L20.2 99zm-6.1 6.1L0 119.2l8.8 8.8c1.4 1.4 3.3 2.2 5.3 2.2s3.9-.8 5.3-2.2l8.8-8.8-14.1-14.1z"/><path transform="rotate(-134.999 76.78 139.422)" class="st3" d="M69.3 131.9H84.3V146.9H69.3z"/><path class="st3" d="M82.1 88.2c-1.4-1.4-3.3-2.2-5.3-2.2s-3.9.8-5.3 2.2l-46 46c-2.9 2.9-2.9 7.7 0 10.6l8.8 8.8 42.4-42.4L99 133.4l14.1-14.1-31-31.1zm37.1 37.1l-14.1 14.1 14.1 14.1 8.8-8.8c1.4-1.4 2.2-3.3 2.2-5.3s-.8-3.9-2.2-5.3l-8.8-8.8z"/><path transform="rotate(-134.999 139.42 76.783)" class="st4" d="M131.9 69.3H146.9V84.3H131.9z"/><path class="st4" d="M133.3 54.6l-14.1-14.1-31 31c-2.9 2.9-2.9 7.7 0 10.6l46 46c1.5 1.5 3.4 2.2 5.3 2.2s3.8-.7 5.3-2.2l8.8-8.8-42.4-42.4 22.1-22.3zm6.1-6.1l14.1-14.1-8.8-8.8c-2.9-2.9-7.7-2.9-10.6 0l-8.8 8.8 14.1 14.1z"/><path class="st1" d="M191 34.4h10.1c3.3 0 6 2.7 6 6V119H191V34.4zm28.9 23.4H236V119h-16.1V57.8zm6-23H236V51h-16.1V40.8c0-3.4 2.7-6 6-6zm23.7 36.1H243V57.8h6.6v-2.2c0-15.9 10.6-21.2 22.6-21.2 2.3 0 4.1.1 5.3.2v13.6c-.4 0-1.8-.2-3.2-.2-5.6 0-8.5 2.6-8.5 8v1.9h10.6V65c0 3.3-2.7 6-6 6h-4.6v48.1h-16.1V70.9zm59.8-14.7c19 0 29.7 12.6 29.7 32.6 0 1.2 0 2.3-.1 3.5h-43c.4 8.2 6.9 14 15.9 14 5.3 0 9.1-2 11.7-4.1 2.2-1.8 5.2-1.8 7.4-.2l6.4 4.8c-2.3 4.3-10.5 13.5-25.7 13.5-19.7 0-32.2-13.6-32.2-31.9 0-18.4 12.5-32.2 29.9-32.2zm13.4 25.7c-.4-7.5-5.7-12.4-13.1-12.4-7.6 0-12.5 5.4-13.2 12.4h26.3zM401 65.5c-1.3 3.4-5.4 4.9-8.5 3-3.2-1.8-7.4-3.4-12.4-3.4-12.8 0-21.8 10.2-21.8 23.4 0 13.1 9.5 23.5 22 23.5 5.1 0 9.1-1.6 12.2-3.4 3.2-1.9 7.4-.4 8.7 3.1-2.5 2.6-9.9 8.7-21.3 8.7-18.1 0-31.2-13.9-31.2-31.9s13.5-31.9 31.1-31.9c11.1 0 18.3 5.3 21.4 8.3l-.2.6zm59.5 15.4v38h-9.2V80.6c0-9.7-6.2-15.6-14.4-15.6-9.4 0-15.9 6.9-15.9 17v37h-9.2V34.4h3.2c3.3 0 6 2.7 6 6v26.5c2.9-5.5 9.7-10.3 18-10.3 14.1 0 21.5 10.5 21.5 24.3zm39.8-24.3c17.9 0 28.9 12.9 28.9 31.1 0 .4 0 1.6-.1 2.8h-48.8c.1 13.6 9.2 21.8 21.9 21.8 7.4 0 12.5-2.8 15.8-5.9 2.1-1.9 5.2-2 7.5-.4l1.7 1.2c-3.4 5.7-11.3 13.2-25.2 13.2-18.5 0-31.2-13-31.2-31.7 0-19.4 13.4-32.1 29.5-32.1zm19.5 27c-.6-12.6-9.4-19.1-19.4-19.1-9.9 0-18.8 7.6-19.5 19.1h38.9zm77.8 57.2h-3.2c-3.3 0-6-2.7-6-6v-25.7c-1.8 3.2-8.8 11.3-21.4 11.3-17.3 0-29-13.2-29-32.1 0-18.6 12.3-31.8 29.7-31.8 13.2 0 19.5 8.9 21.1 11.1V58h8.9v82.8zM568.1 65c-11.7 0-20.8 9.1-20.8 23.4 0 13.9 8.8 23.6 20.6 23.6 11.5 0 20.8-8.7 20.8-23.6 0-12.7-7.8-23.4-20.6-23.4z"/></svg>